<svg xmlns="http://www.w3.org/2000/svg" xmlns:xlink="http://www.w3.org/1999/xlink" preserveAspectRatio="xMidYMid meet" version="1.0" viewBox="0.1 0.0 327.6 313.2" zoomAndPan="magnify" style="fill: rgb(0, 0, 0);" original_string_length="14575" width="897.4014517190456px" height="854.9788376377815px"><g data-name="Layer 2"><g data-name="Layer 1" id="__id0_seq5f05te1l" style="fill: rgb(255, 255, 255);"><path d="M112.9,7.75a1.53,1.53,0,0,0,0,3.06A1.53,1.53,0,0,0,112.9,7.75Z" style="fill: inherit;"/><path d="M137.48,45a1.53,1.53,0,0,0,0,3.06A1.53,1.53,0,0,0,137.48,45Z" style="fill: inherit;"/><path d="M133.84,70a1.54,1.54,0,0,0,0,3.07A1.54,1.54,0,0,0,133.84,70Z" style="fill: inherit;"/><path d="M184,43.4a1.54,1.54,0,0,0,0,3.07A1.54,1.54,0,0,0,184,43.4Z" style="fill: inherit;"/><path d="M143,32.71a1.54,1.54,0,0,0,0-3.07A1.54,1.54,0,0,0,143,32.71Z" style="fill: inherit;"/><path d="M137.07,114.06a1.54,1.54,0,0,0,0,3.07A1.54,1.54,0,0,0,137.07,114.06Z" style="fill: inherit;"/><path d="M166.28,31.64a1.54,1.54,0,0,0,0,3.07A1.54,1.54,0,0,0,166.28,31.64Z" style="fill: inherit;"/><path d="M173.38,63.14a1.53,1.53,0,0,0,0,3.06A1.53,1.53,0,0,0,173.38,63.14Z" style="fill: inherit;"/><path d="M220.58,89.94a1.54,1.54,0,0,0,0,3.07A1.54,1.54,0,0,0,220.58,89.94Z" style="fill: inherit;"/><path d="M244.9,41.46a1.53,1.53,0,0,0,0,3.06A1.53,1.53,0,0,0,244.9,41.46Z" style="fill: inherit;"/><path d="M216.35,124.8a1.54,1.54,0,0,0,0-3.07A1.54,1.54,0,0,0,216.35,124.8Z" style="fill: inherit;"/><path d="M241.21,117.47a1.54,1.54,0,0,0,0,3.07A1.54,1.54,0,0,0,241.21,117.47Z" style="fill: inherit;"/><path d="M165.88,119.79a1.54,1.54,0,0,0,0-3.07A1.54,1.54,0,0,0,165.88,119.79Z" style="fill: inherit;"/><path d="M193.19,122.62a1.54,1.54,0,0,0,0,3.07A1.54,1.54,0,0,0,193.19,122.62Z" style="fill: inherit;"/><path d="M207.22,97.39a1.53,1.53,0,0,0,0,3.06A1.53,1.53,0,0,0,207.22,97.39Z" style="fill: inherit;"/><path d="M242.59,95.49a1.53,1.53,0,0,0,0-3.06A1.53,1.53,0,0,0,242.59,95.49Z" style="fill: inherit;"/><path d="M225.4,71.43a1.54,1.54,0,0,0,0,3.07A1.54,1.54,0,0,0,225.4,71.43Z" style="fill: inherit;"/><path d="M319.17,3.07a1.54,1.54,0,0,0,0-3.07A1.54,1.54,0,0,0,319.17,3.07Z" style="fill: inherit;"/><path d="M319.16,5.93a1.54,1.54,0,0,0,0,3.07A1.54,1.54,0,0,0,319.16,5.93Z" style="fill: inherit;"/><path d="M287.63,30.18a1.54,1.54,0,0,0,0,3.07A1.54,1.54,0,0,0,287.63,30.18Z" style="fill: inherit;"/><path d="M257.08,50.27a1.54,1.54,0,0,0,0,3.07A1.54,1.54,0,0,0,257.08,50.27Z" style="fill: inherit;"/><path d="M277.36,17.72a1.54,1.54,0,0,0,0-3.07A1.54,1.54,0,0,0,277.36,17.72Z" style="fill: inherit;"/><path d="M268.13,59.23a1.53,1.53,0,0,0,0,3.06A1.53,1.53,0,0,0,268.13,59.23Z" style="fill: inherit;"/><path d="M284.67,84.22a1.53,1.53,0,0,0,0,3.06A1.53,1.53,0,0,0,284.67,84.22Z" style="fill: inherit;"/><path d="M282.46,119a1.53,1.53,0,0,0,0-3.06A1.53,1.53,0,0,0,282.46,119Z" style="fill: inherit;"/><path d="M302.86,136.62a1.53,1.53,0,0,0,0-3.06A1.53,1.53,0,0,0,302.86,136.62Z" style="fill: inherit;"/><path d="M321.07,101.44a1.54,1.54,0,0,0,0,3.07A1.54,1.54,0,0,0,321.07,101.44Z" style="fill: inherit;"/><path d="M305.72,27.47a1.53,1.53,0,0,0,0,3.06A1.53,1.53,0,0,0,305.72,27.47Z" style="fill: inherit;"/><path d="M123.58,9.41a1.53,1.53,0,0,0,0-3.06A1.53,1.53,0,0,0,123.58,9.41Z" style="fill: inherit;"/><path d="M122.86,69.75a1.53,1.53,0,0,0,0,3.06A1.53,1.53,0,0,0,122.86,69.75Z" style="fill: inherit;"/><path d="M124.51,112.18a1.54,1.54,0,0,0,0,3.07A1.54,1.54,0,0,0,124.51,112.18Z" style="fill: inherit;"/><path d="M131.81,126.88a1.53,1.53,0,0,0,0,3.06A1.53,1.53,0,0,0,131.81,126.88Z" style="fill: inherit;"/><path d="M162.35,4.91a1.54,1.54,0,0,0,0,3.07A1.54,1.54,0,0,0,162.35,4.91Z" style="fill: inherit;"/><path d="M194,22.54a1.53,1.53,0,0,0,0,3.06A1.53,1.53,0,0,0,194,22.54Z" style="fill: inherit;"/><path d="M198.81,24.9a1.54,1.54,0,0,0,0,3.07A1.54,1.54,0,0,0,198.81,24.9Z" style="fill: inherit;"/><path d="M214.63,27.12a1.53,1.53,0,0,0,0-3.06A1.53,1.53,0,0,0,214.63,27.12Z" style="fill: inherit;"/><path d="M205.83,43.11a1.53,1.53,0,0,0,0,3.06A1.53,1.53,0,0,0,205.83,43.11Z" style="fill: inherit;"/><path d="M183.72,79.05a1.53,1.53,0,0,0,0-3.06A1.53,1.53,0,0,0,183.72,79.05Z" style="fill: inherit;"/><path d="M326.24,62.49a1.54,1.54,0,0,0,0,3.07A1.54,1.54,0,0,0,326.24,62.49Z" style="fill: inherit;"/><path d="M324.84,61.52a1.54,1.54,0,0,0,0-3.07A1.54,1.54,0,0,0,324.84,61.52Z" style="fill: inherit;"/><path d="M314.7,63.43a1.54,1.54,0,0,0,0-3.07A1.54,1.54,0,0,0,314.7,63.43Z" style="fill: inherit;"/><path d="M301.83,65.25a1.54,1.54,0,0,0,0-3.07A1.54,1.54,0,0,0,301.83,65.25Z" style="fill: inherit;"/><path d="M302.53,81.61a1.53,1.53,0,0,0,0-3.06A1.53,1.53,0,0,0,302.53,81.61Z" style="fill: inherit;"/><path d="M293,241.17a1.53,1.53,0,0,0,0,3.06A1.53,1.53,0,0,0,293,241.17Z" style="fill: inherit;"/><path d="M195.08,201.58a1.54,1.54,0,0,0,0,3.07A1.54,1.54,0,0,0,195.08,201.58Z" style="fill: inherit;"/><path d="M194,208.87a1.53,1.53,0,0,0,0-3.06A1.53,1.53,0,0,0,194,208.87Z" style="fill: inherit;"/><path d="M178.28,204a1.53,1.53,0,0,0,0,3.06A1.53,1.53,0,0,0,178.28,204Z" style="fill: inherit;"/><path d="M165.58,194.91a1.54,1.54,0,0,0,0,3.07A1.54,1.54,0,0,0,165.58,194.91Z" style="fill: inherit;"/><path d="M166.38,169.13a1.53,1.53,0,0,0,0,3.06A1.53,1.53,0,0,0,166.38,169.13Z" style="fill: inherit;"/><path d="M144.7,165.76a1.54,1.54,0,0,0,0,3.07A1.54,1.54,0,0,0,144.7,165.76Z" style="fill: inherit;"/><path d="M119.08,175.65a1.54,1.54,0,0,0,0,3.07A1.54,1.54,0,0,0,119.08,175.65Z" style="fill: inherit;"/><path d="M129.72,158.56a1.54,1.54,0,0,0,0,3.07A1.54,1.54,0,0,0,129.72,158.56Z" style="fill: inherit;"/><path d="M143.53,142a1.53,1.53,0,0,0,0,3.06A1.53,1.53,0,0,0,143.53,142Z" style="fill: inherit;"/><path d="M152,142.79a1.54,1.54,0,0,0,0-3.07A1.54,1.54,0,0,0,152,142.79Z" style="fill: inherit;"/><path d="M115.94,184a1.54,1.54,0,0,0,0,3.07A1.54,1.54,0,0,0,115.94,184Z" style="fill: inherit;"/><path d="M136.27,196.49a1.54,1.54,0,0,0,0-3.07A1.54,1.54,0,0,0,136.27,196.49Z" style="fill: inherit;"/><path d="M198.31,139.79a1.42,1.42,0,0,0,1.46-1.28,1.49,1.49,0,1,0-2.92,0A1.42,1.42,0,0,0,198.31,139.79Z" style="fill: inherit;"/><path d="M147.56,197a1.54,1.54,0,0,0,0,3.07A1.54,1.54,0,0,0,147.56,197Z" style="fill: inherit;"/><path d="M112.9,272.65a1.54,1.54,0,0,0,0,3.07A1.54,1.54,0,0,0,112.9,272.65Z" style="fill: inherit;"/><path d="M189.79,182.86a1.54,1.54,0,0,0,0,3.07A1.54,1.54,0,0,0,189.79,182.86Z" style="fill: inherit;"/><path d="M163.34,237a1.54,1.54,0,0,0,0-3.07A1.54,1.54,0,0,0,163.34,237Z" style="fill: inherit;"/><path d="M137.48,309.94a1.54,1.54,0,0,0,0,3.07A1.54,1.54,0,0,0,137.48,309.94Z" style="fill: inherit;"/><path d="M168.14,249.06a1.54,1.54,0,0,0,0,3.07A1.54,1.54,0,0,0,168.14,249.06Z" style="fill: inherit;"/><path d="M184,308.31a1.53,1.53,0,0,0,0,3.06A1.53,1.53,0,0,0,184,308.31Z" style="fill: inherit;"/><path d="M143,294.55a1.53,1.53,0,0,0,0,3.06A1.53,1.53,0,0,0,143,294.55Z" style="fill: inherit;"/><path d="M191.81,241.26a1.54,1.54,0,0,0,0,3.07A1.54,1.54,0,0,0,191.81,241.26Z" style="fill: inherit;"/><path d="M166.28,296.55a1.53,1.53,0,0,0,0,3.06A1.53,1.53,0,0,0,166.28,296.55Z" style="fill: inherit;"/><path d="M203.8,250.56a1.54,1.54,0,0,0,0,3.07A1.54,1.54,0,0,0,203.8,250.56Z" style="fill: inherit;"/><path d="M244.9,306.36a1.54,1.54,0,0,0,0,3.07A1.54,1.54,0,0,0,244.9,306.36Z" style="fill: inherit;"/><path d="M273.44,237.51a1.54,1.54,0,0,0,0,3.07A1.54,1.54,0,0,0,273.44,237.51Z" style="fill: inherit;"/><path d="M266.39,199.75a1.54,1.54,0,0,0,0,3.07A1.54,1.54,0,0,0,266.39,199.75Z" style="fill: inherit;"/><path d="M243.76,259.23a1.54,1.54,0,0,0,0-3.07A1.54,1.54,0,0,0,243.76,259.23Z" style="fill: inherit;"/><path d="M253.4,216.76a1.53,1.53,0,0,0,0,3.06A1.53,1.53,0,0,0,253.4,216.76Z" style="fill: inherit;"/><path d="M237.42,200.32a1.53,1.53,0,0,0,0,3.06A1.53,1.53,0,0,0,237.42,200.32Z" style="fill: inherit;"/><path d="M253.78,172.94a1.54,1.54,0,0,0,0,3.07A1.54,1.54,0,0,0,253.78,172.94Z" style="fill: inherit;"/><path d="M238.67,159.68a1.54,1.54,0,0,0,0,3.07A1.54,1.54,0,0,0,238.67,159.68Z" style="fill: inherit;"/><path d="M277.45,149.48a1.53,1.53,0,0,0,0,3.06A1.53,1.53,0,0,0,277.45,149.48Z" style="fill: inherit;"/><path d="M296.5,164.57a1.54,1.54,0,0,0,0,3.07A1.54,1.54,0,0,0,296.5,164.57Z" style="fill: inherit;"/><path d="M319.17,268a1.54,1.54,0,0,0,0-3.07A1.54,1.54,0,0,0,319.17,268Z" style="fill: inherit;"/><path d="M319.16,270.84a1.53,1.53,0,0,0,0,3.06A1.53,1.53,0,0,0,319.16,270.84Z" style="fill: inherit;"/><path d="M287.63,295.09a1.53,1.53,0,0,0,0,3.06A1.53,1.53,0,0,0,287.63,295.09Z" style="fill: inherit;"/><path d="M277.36,282.62a1.53,1.53,0,0,0,0-3.06A1.53,1.53,0,0,0,277.36,282.62Z" style="fill: inherit;"/><path d="M305.72,292.37a1.54,1.54,0,0,0,0,3.07A1.54,1.54,0,0,0,305.72,292.37Z" style="fill: inherit;"/><path d="M311.07,219.1a1.54,1.54,0,0,0,0,3.07A1.54,1.54,0,0,0,311.07,219.1Z" style="fill: inherit;"/><path d="M317.5,217.21a1.53,1.53,0,0,0,0,3.06A1.53,1.53,0,0,0,317.5,217.21Z" style="fill: inherit;"/><path d="M311.52,204.7a1.54,1.54,0,0,0,0,3.07A1.54,1.54,0,0,0,311.52,204.7Z" style="fill: inherit;"/><path d="M300.22,189.81a1.53,1.53,0,0,0,0,3.06A1.53,1.53,0,0,0,300.22,189.81Z" style="fill: inherit;"/><path d="M314.84,178.56a1.53,1.53,0,0,0,0,3.06A1.53,1.53,0,0,0,314.84,178.56Z" style="fill: inherit;"/><path d="M123.68,141.32a1.53,1.53,0,0,0,0,3.06A1.53,1.53,0,0,0,123.68,141.32Z" style="fill: inherit;"/><path d="M122.87,153.24a1.53,1.53,0,0,0,0-3.06A1.53,1.53,0,0,0,122.87,153.24Z" style="fill: inherit;"/><path d="M123.58,271.25a1.54,1.54,0,0,0,0,3.07A1.54,1.54,0,0,0,123.58,271.25Z" style="fill: inherit;"/><path d="M153.75,253.74a1.53,1.53,0,0,0,0,3.06A1.53,1.53,0,0,0,153.75,253.74Z" style="fill: inherit;"/><path d="M160.82,174.16a1.54,1.54,0,0,0,0,3.07A1.54,1.54,0,0,0,160.82,174.16Z" style="fill: inherit;"/><path d="M155.62,195.46a1.53,1.53,0,0,0,0,3.06A1.53,1.53,0,0,0,155.62,195.46Z" style="fill: inherit;"/><path d="M137.45,247.32a1.54,1.54,0,0,0,0-3.07A1.54,1.54,0,0,0,137.45,247.32Z" style="fill: inherit;"/><path d="M132.61,237.46a1.54,1.54,0,0,0,0-3.07A1.54,1.54,0,0,0,132.61,237.46Z" style="fill: inherit;"/><path d="M122.81,220.88a1.53,1.53,0,0,0,0-3.06A1.53,1.53,0,0,0,122.81,220.88Z" style="fill: inherit;"/><path d="M162.35,269.82a1.53,1.53,0,0,0,0,3.06A1.53,1.53,0,0,0,162.35,269.82Z" style="fill: inherit;"/><path d="M194,287.44a1.54,1.54,0,0,0,0,3.07A1.54,1.54,0,0,0,194,287.44Z" style="fill: inherit;"/><path d="M198.81,289.8a1.54,1.54,0,0,0,0,3.07A1.54,1.54,0,0,0,198.81,289.8Z" style="fill: inherit;"/><path d="M214.63,289a1.54,1.54,0,0,0,0,3.07A1.54,1.54,0,0,0,214.63,289Z" style="fill: inherit;"/><path d="M205.83,308a1.54,1.54,0,0,0,0,3.07A1.54,1.54,0,0,0,205.83,308Z" style="fill: inherit;"/><path d="M224.5,165.27a1.54,1.54,0,0,0,0,3.07A1.54,1.54,0,0,0,224.5,165.27Z" style="fill: inherit;"/><path d="M225,170.15a1.54,1.54,0,0,0,0,3.07A1.54,1.54,0,0,0,225,170.15Z" style="fill: inherit;"/><path d="M216.83,166.65a1.54,1.54,0,0,0,0,3.07A1.54,1.54,0,0,0,216.83,166.65Z" style="fill: inherit;"/><path d="M205.67,156.33a1.53,1.53,0,0,0,0-3.06A1.53,1.53,0,0,0,205.67,156.33Z" style="fill: inherit;"/><path d="M54.26,3.07a1.54,1.54,0,0,0,0-3.07A1.54,1.54,0,0,0,54.26,3.07Z" style="fill: inherit;"/><path d="M54.26,5.93a1.54,1.54,0,0,0,0,3.07A1.54,1.54,0,0,0,54.26,5.93Z" style="fill: inherit;"/><path d="M22.73,30.18a1.54,1.54,0,0,0,0,3.07A1.54,1.54,0,0,0,22.73,30.18Z" style="fill: inherit;"/><path d="M12.45,17.72a1.54,1.54,0,0,0,0-3.07A1.54,1.54,0,0,0,12.45,17.72Z" style="fill: inherit;"/><path d="M3.22,59.23a1.53,1.53,0,0,0,0,3.06A1.53,1.53,0,0,0,3.22,59.23Z" style="fill: inherit;"/><path d="M19.77,84.22a1.53,1.53,0,0,0,0,3.06A1.53,1.53,0,0,0,19.77,84.22Z" style="fill: inherit;"/><path d="M17.55,119a1.53,1.53,0,0,0,0-3.06A1.53,1.53,0,0,0,17.55,119Z" style="fill: inherit;"/><path d="M38,136.62a1.53,1.53,0,0,0,0-3.06A1.53,1.53,0,0,0,38,136.62Z" style="fill: inherit;"/><path d="M56.16,101.44a1.54,1.54,0,0,0,0,3.07A1.54,1.54,0,0,0,56.16,101.44Z" style="fill: inherit;"/><path d="M71.81,106.8a1.53,1.53,0,0,0,0-3.06A1.53,1.53,0,0,0,71.81,106.8Z" style="fill: inherit;"/><path d="M72.11,89.36a1.53,1.53,0,0,0,0-3.06A1.53,1.53,0,0,0,72.11,89.36Z" style="fill: inherit;"/><path d="M79.34,45.25a1.53,1.53,0,0,0,0,3.06A1.53,1.53,0,0,0,79.34,45.25Z" style="fill: inherit;"/><path d="M40.82,27.47a1.53,1.53,0,0,0,0,3.06A1.53,1.53,0,0,0,40.82,27.47Z" style="fill: inherit;"/><path d="M85.2,25.32a1.53,1.53,0,0,0,0,3.06A1.53,1.53,0,0,0,85.2,25.32Z" style="fill: inherit;"/><path d="M104.71,19a1.53,1.53,0,0,0,0,3.06A1.53,1.53,0,0,0,104.71,19Z" style="fill: inherit;"/><path d="M100.45,31.24a1.53,1.53,0,0,0,0,3.06A1.53,1.53,0,0,0,100.45,31.24Z" style="fill: inherit;"/><path d="M61.33,62.49a1.54,1.54,0,0,0,0,3.07A1.54,1.54,0,0,0,61.33,62.49Z" style="fill: inherit;"/><path d="M59.93,61.52a1.54,1.54,0,0,0,0-3.07A1.54,1.54,0,0,0,59.93,61.52Z" style="fill: inherit;"/><path d="M49.8,63.43a1.54,1.54,0,0,0,0-3.07A1.54,1.54,0,0,0,49.8,63.43Z" style="fill: inherit;"/><path d="M36.92,65.25a1.54,1.54,0,0,0,0-3.07A1.54,1.54,0,0,0,36.92,65.25Z" style="fill: inherit;"/><path d="M37.63,81.61a1.53,1.53,0,0,0,0-3.06A1.53,1.53,0,0,0,37.63,81.61Z" style="fill: inherit;"/><path d="M100.22,225.1a1.54,1.54,0,0,0,0-3.07A1.54,1.54,0,0,0,100.22,225.1Z" style="fill: inherit;"/><path d="M28.13,241.17a1.53,1.53,0,0,0,0,3.06A1.53,1.53,0,0,0,28.13,241.17Z" style="fill: inherit;"/><path d="M8.54,237.51a1.54,1.54,0,0,0,0,3.07A1.54,1.54,0,0,0,8.54,237.51Z" style="fill: inherit;"/><path d="M1.48,199.75a1.54,1.54,0,0,0,0,3.07A1.54,1.54,0,0,0,1.48,199.75Z" style="fill: inherit;"/><path d="M12.55,149.48a1.53,1.53,0,0,0,0,3.06A1.53,1.53,0,0,0,12.55,149.48Z" style="fill: inherit;"/><path d="M90.67,166a1.53,1.53,0,0,0,0,3.06A1.53,1.53,0,0,0,90.67,166Z" style="fill: inherit;"/><path d="M75,165.65a1.53,1.53,0,0,0,0,3.06A1.53,1.53,0,0,0,75,165.65Z" style="fill: inherit;"/><path d="M31.59,164.57a1.54,1.54,0,0,0,0,3.07A1.54,1.54,0,0,0,31.59,164.57Z" style="fill: inherit;"/><path d="M102.83,187.75a1.54,1.54,0,0,0,0,3.07A1.54,1.54,0,0,0,102.83,187.75Z" style="fill: inherit;"/><path d="M74.24,198a1.54,1.54,0,0,0,0,3.07A1.54,1.54,0,0,0,74.24,198Z" style="fill: inherit;"/><path d="M54.26,268a1.54,1.54,0,0,0,0-3.07A1.54,1.54,0,0,0,54.26,268Z" style="fill: inherit;"/><path d="M54.26,270.84a1.53,1.53,0,0,0,0,3.06A1.53,1.53,0,0,0,54.26,270.84Z" style="fill: inherit;"/><path d="M22.73,295.09a1.53,1.53,0,0,0,0,3.06A1.53,1.53,0,0,0,22.73,295.09Z" style="fill: inherit;"/><path d="M12.45,282.62a1.53,1.53,0,0,0,0-3.06A1.53,1.53,0,0,0,12.45,282.62Z" style="fill: inherit;"/><path d="M79.34,310.15a1.54,1.54,0,0,0,0,3.07A1.54,1.54,0,0,0,79.34,310.15Z" style="fill: inherit;"/><path d="M40.82,292.37a1.54,1.54,0,0,0,0,3.07A1.54,1.54,0,0,0,40.82,292.37Z" style="fill: inherit;"/><path d="M85.2,290.22a1.54,1.54,0,0,0,0,3.07A1.54,1.54,0,0,0,85.2,290.22Z" style="fill: inherit;"/><path d="M104.71,283.88a1.54,1.54,0,0,0,0,3.07A1.54,1.54,0,0,0,104.71,283.88Z" style="fill: inherit;"/><path d="M100.45,296.14a1.54,1.54,0,0,0,0,3.07A1.54,1.54,0,0,0,100.45,296.14Z" style="fill: inherit;"/><path d="M100.58,242.79a1.54,1.54,0,0,0,0,3.07A1.54,1.54,0,0,0,100.58,242.79Z" style="fill: inherit;"/><path d="M83.45,218.48a1.54,1.54,0,0,0,0,3.07A1.54,1.54,0,0,0,83.45,218.48Z" style="fill: inherit;"/><path d="M46.17,219.1a1.54,1.54,0,0,0,0,3.07A1.54,1.54,0,0,0,46.17,219.1Z" style="fill: inherit;"/><path d="M52.6,217.21a1.53,1.53,0,0,0,0,3.06A1.53,1.53,0,0,0,52.6,217.21Z" style="fill: inherit;"/><path d="M46.62,204.7a1.54,1.54,0,0,0,0,3.07A1.54,1.54,0,0,0,46.62,204.7Z" style="fill: inherit;"/><path d="M35.31,189.81a1.53,1.53,0,0,0,0,3.06A1.53,1.53,0,0,0,35.31,189.81Z" style="fill: inherit;"/><path d="M49.94,178.56a1.53,1.53,0,0,0,0,3.06A1.53,1.53,0,0,0,49.94,178.56Z" style="fill: inherit;"/><path d="M70.55,141.88a1.53,1.53,0,0,0,0-3.06A1.53,1.53,0,0,0,70.55,141.88Z" style="fill: inherit;"/></g></g></svg>