<svg width="338" height="266" viewBox="0 0 338 266" fill="none" xmlns="http://www.w3.org/2000/svg">
<mask id="mask0_6_28" style="mask-type:luminance" maskUnits="userSpaceOnUse" x="72" y="0" width="129" height="156">
<path d="M72.6667 0H200.667V156H72.6667V0Z" fill="white"/>
</mask>
<g mask="url(#mask0_6_28)">
<mask id="mask1_6_28" style="mask-type:luminance" maskUnits="userSpaceOnUse" x="53" y="-25" width="182" height="212">
<path d="M53.5469 22.1406L166.151 -24.8073L234.656 139.479L122.052 186.432L53.5469 22.1406Z" fill="white"/>
</mask>
<g mask="url(#mask1_6_28)">
<mask id="mask2_6_28" style="mask-type:luminance" maskUnits="userSpaceOnUse" x="53" y="-25" width="182" height="212">
<path d="M53.5469 22.1406L166.151 -24.8073L234.656 139.479L122.052 186.432L53.5469 22.1406Z" fill="white"/>
</mask>
<g mask="url(#mask2_6_28)">
<path d="M198.76 154.672C194.594 151.203 190.375 147.385 186.167 143.276C180.687 139.349 173.12 140.557 166.625 140.797C138.781 142.49 121.443 121.885 105.109 102.656C100.036 96.1041 117.75 102.172 120.088 102.375C136.469 106 151.849 113.995 164.432 125.052C170.547 130.776 179.104 140.437 185.099 142.328C185.177 142.365 185.255 142.406 185.323 142.453C173.568 130.865 161.885 117.083 151.557 102.5C140.713 93.9583 126.016 92.9323 112.953 89.1458C98.1093 83.5312 86.9687 71.3593 73.776 62.8958C68.0728 56.9687 95.7343 63.802 97.9322 63.8906C115.307 67.6302 130.052 78.776 140.844 92.5885C143.573 96.1093 147.417 98.6614 150.854 101.505C141.745 88.5521 133.719 75.0104 127.641 61.8541C112.495 50.5937 107.88 30.9323 105.12 13.1302C104.896 9.46872 102.62 5.04163 103.75 1.59892C105.786 0.35934 107.422 3.66663 108.661 4.88538C122.833 19.9531 127.276 40.2083 128.031 60.2448C129.729 63.5937 131.484 66.9062 133.323 70.1823C125.536 49.5156 139.234 35.0104 153.943 22.4843C160.526 16.8125 164.979 9.19267 170.526 2.83851C177.135 2.44788 169.526 27.7708 167.526 31.3333C162.687 43.0729 154.036 52.901 143.963 60.4531C140.302 63.3593 135.385 65.4948 133.667 70.1145C133.792 70.5885 133.922 71.0677 134.073 71.5364C146.302 93.2968 161.271 113.62 177.719 132.333C184.234 139.839 191.698 146.359 198.963 153.115C199.505 153.427 199.693 154.385 199.114 154.625C199 154.667 198.885 154.682 198.76 154.672Z" fill="#A0B699"/>
</g>
</g>
</g>
<mask id="mask3_6_28" style="mask-type:luminance" maskUnits="userSpaceOnUse" x="88" y="69" width="33" height="18">
<path d="M88.6667 69.3333H120.667V86.6666H88.6667V69.3333Z" fill="white"/>
</mask>
<g mask="url(#mask3_6_28)">
<mask id="mask4_6_28" style="mask-type:luminance" maskUnits="userSpaceOnUse" x="53" y="-25" width="182" height="212">
<path d="M53.5469 22.1405L166.151 -24.8074L234.656 139.479L122.052 186.432L53.5469 22.1405Z" fill="white"/>
</mask>
<g mask="url(#mask4_6_28)">
<mask id="mask5_6_28" style="mask-type:luminance" maskUnits="userSpaceOnUse" x="53" y="-25" width="182" height="212">
<path d="M53.5469 22.1405L166.151 -24.8074L234.656 139.479L122.052 186.432L53.5469 22.1405Z" fill="white"/>
</mask>
<g mask="url(#mask5_6_28)">
<path d="M89.1145 70.4635C98.2083 77.8124 110.104 81.1718 120.292 86.0728C109.312 82.5728 97.0468 78.927 89.1145 70.4635Z" fill="#50644A"/>
</g>
</g>
</g>
<mask id="mask6_6_28" style="mask-type:luminance" maskUnits="userSpaceOnUse" x="86" y="65" width="38" height="21">
<path d="M86 65.3333H123.333V85.3333H86V65.3333Z" fill="white"/>
</mask>
<g mask="url(#mask6_6_28)">
<mask id="mask7_6_28" style="mask-type:luminance" maskUnits="userSpaceOnUse" x="53" y="-25" width="182" height="212">
<path d="M53.5469 22.1405L166.151 -24.8074L234.656 139.479L122.052 186.432L53.5469 22.1405Z" fill="white"/>
</mask>
<g mask="url(#mask7_6_28)">
<mask id="mask8_6_28" style="mask-type:luminance" maskUnits="userSpaceOnUse" x="53" y="-25" width="182" height="212">
<path d="M53.5469 22.1405L166.151 -24.8074L234.656 139.479L122.052 186.432L53.5469 22.1405Z" fill="white"/>
</mask>
<g mask="url(#mask8_6_28)">
<path d="M86.9895 66.1874C99.1041 70.4426 111.906 77.151 122.641 84.1874C110.667 78.427 98.7968 72.177 86.9895 66.1874Z" fill="#50644A"/>
</g>
</g>
</g>
<mask id="mask9_6_28" style="mask-type:luminance" maskUnits="userSpaceOnUse" x="107" y="72" width="23" height="16">
<path d="M107.333 72H130V88H107.333V72Z" fill="white"/>
</mask>
<g mask="url(#mask9_6_28)">
<mask id="mask10_6_28" style="mask-type:luminance" maskUnits="userSpaceOnUse" x="53" y="-25" width="182" height="212">
<path d="M53.5469 22.1406L166.151 -24.8073L234.656 139.479L122.052 186.432L53.5469 22.1406Z" fill="white"/>
</mask>
<g mask="url(#mask10_6_28)">
<mask id="mask11_6_28" style="mask-type:luminance" maskUnits="userSpaceOnUse" x="53" y="-25" width="182" height="212">
<path d="M53.5469 22.1406L166.151 -24.8073L234.656 139.479L122.052 186.432L53.5469 22.1406Z" fill="white"/>
</mask>
<g mask="url(#mask11_6_28)">
<path d="M108.432 73.25C116.073 76.3021 123.958 82.0781 129.885 87.7917C122.818 82.8073 115.849 77.6563 108.432 73.25Z" fill="#50644A"/>
</g>
</g>
</g>
<mask id="mask12_6_28" style="mask-type:luminance" maskUnits="userSpaceOnUse" x="108" y="17" width="16" height="38">
<path d="M108.667 17.3333H123.333V54.6666H108.667V17.3333Z" fill="white"/>
</mask>
<g mask="url(#mask12_6_28)">
<mask id="mask13_6_28" style="mask-type:luminance" maskUnits="userSpaceOnUse" x="53" y="-25" width="182" height="212">
<path d="M53.5469 22.1405L166.151 -24.8074L234.656 139.479L122.052 186.432L53.5469 22.1405Z" fill="white"/>
</mask>
<g mask="url(#mask13_6_28)">
<mask id="mask14_6_28" style="mask-type:luminance" maskUnits="userSpaceOnUse" x="53" y="-25" width="182" height="212">
<path d="M53.5469 22.1405L166.151 -24.8074L234.656 139.479L122.052 186.432L53.5469 22.1405Z" fill="white"/>
</mask>
<g mask="url(#mask14_6_28)">
<path d="M109.031 18.6301C112.182 30.6197 116.443 42.9374 122.557 53.4114L122.562 53.4166C114.854 43.4999 110.531 30.7499 109.031 18.6301Z" fill="#50644A"/>
</g>
</g>
</g>
<mask id="mask15_6_28" style="mask-type:luminance" maskUnits="userSpaceOnUse" x="112" y="22" width="8" height="21">
<path d="M112.667 22.6666H119.333V42.6666H112.667V22.6666Z" fill="white"/>
</mask>
<g mask="url(#mask15_6_28)">
<mask id="mask16_6_28" style="mask-type:luminance" maskUnits="userSpaceOnUse" x="53" y="-25" width="182" height="212">
<path d="M53.5469 22.1406L166.151 -24.8073L234.656 139.479L122.052 186.432L53.5469 22.1406Z" fill="white"/>
</mask>
<g mask="url(#mask16_6_28)">
<mask id="mask17_6_28" style="mask-type:luminance" maskUnits="userSpaceOnUse" x="53" y="-25" width="182" height="212">
<path d="M53.5469 22.1406L166.151 -24.8073L234.656 139.479L122.052 186.432L53.5469 22.1406Z" fill="white"/>
</mask>
<g mask="url(#mask17_6_28)">
<path d="M112.974 23.1041C115.463 29.3073 118.156 36.3593 119.052 42.6666C117.031 36.3385 114.396 29.4375 112.974 23.1041Z" fill="#50644A"/>
</g>
</g>
</g>
<mask id="mask18_6_28" style="mask-type:luminance" maskUnits="userSpaceOnUse" x="112" y="20" width="13" height="32">
<path d="M112.667 20H124.667V52H112.667V20Z" fill="white"/>
</mask>
<g mask="url(#mask18_6_28)">
<mask id="mask19_6_28" style="mask-type:luminance" maskUnits="userSpaceOnUse" x="53" y="-25" width="182" height="212">
<path d="M53.5469 22.1406L166.151 -24.8073L234.656 139.479L122.052 186.432L53.5469 22.1406Z" fill="white"/>
</mask>
<g mask="url(#mask19_6_28)">
<mask id="mask20_6_28" style="mask-type:luminance" maskUnits="userSpaceOnUse" x="53" y="-25" width="182" height="212">
<path d="M53.5469 22.1406L166.151 -24.8073L234.656 139.479L122.052 186.432L53.5469 22.1406Z" fill="white"/>
</mask>
<g mask="url(#mask20_6_28)">
<path d="M113.708 20.1458C118.526 29.8489 122.807 40.7291 124.073 51.2708C121.281 40.7916 117.026 30.2031 113.708 20.1458Z" fill="#50644A"/>
</g>
</g>
</g>
<mask id="mask21_6_28" style="mask-type:luminance" maskUnits="userSpaceOnUse" x="135" y="18" width="29" height="44">
<path d="M135.333 18.6666H163.333V61.3333H135.333V18.6666Z" fill="white"/>
</mask>
<g mask="url(#mask21_6_28)">
<mask id="mask22_6_28" style="mask-type:luminance" maskUnits="userSpaceOnUse" x="53" y="-25" width="182" height="212">
<path d="M53.5469 22.1406L166.151 -24.8073L234.656 139.479L122.052 186.432L53.5469 22.1406Z" fill="white"/>
</mask>
<g mask="url(#mask22_6_28)">
<mask id="mask23_6_28" style="mask-type:luminance" maskUnits="userSpaceOnUse" x="53" y="-25" width="182" height="212">
<path d="M53.5469 22.1406L166.151 -24.8073L234.656 139.479L122.052 186.432L53.5469 22.1406Z" fill="white"/>
</mask>
<g mask="url(#mask23_6_28)">
<path d="M136.198 60.3385C136.307 43.1562 151.885 30.8541 162.901 19.8541C153.063 32.4843 138.385 43.5364 136.219 60.2135C136.214 60.2343 136.214 60.2343 136.219 60.2448L136.224 60.2552C136.287 60.2291 136.26 60.3125 136.224 60.3281L136.198 60.3385Z" fill="#50644A"/>
</g>
</g>
</g>
<mask id="mask24_6_28" style="mask-type:luminance" maskUnits="userSpaceOnUse" x="146" y="29" width="14" height="15">
<path d="M146 29.3333H159.333V43.9999H146V29.3333Z" fill="white"/>
</mask>
<g mask="url(#mask24_6_28)">
<mask id="mask25_6_28" style="mask-type:luminance" maskUnits="userSpaceOnUse" x="53" y="-25" width="182" height="212">
<path d="M53.5469 22.1405L166.151 -24.8074L234.656 139.479L122.052 186.432L53.5469 22.1405Z" fill="white"/>
</mask>
<g mask="url(#mask25_6_28)">
<mask id="mask26_6_28" style="mask-type:luminance" maskUnits="userSpaceOnUse" x="53" y="-25" width="182" height="212">
<path d="M53.5469 22.1405L166.151 -24.8074L234.656 139.479L122.052 186.432L53.5469 22.1405Z" fill="white"/>
</mask>
<g mask="url(#mask26_6_28)">
<path d="M146.729 43.8749C150.104 38.9687 154.37 34.0312 158.208 29.7968C155.016 34.927 150.688 39.5416 146.802 43.9166C146.797 43.901 146.714 43.9687 146.729 43.8749Z" fill="#50644A"/>
</g>
</g>
</g>
<mask id="mask27_6_28" style="mask-type:luminance" maskUnits="userSpaceOnUse" x="147" y="14" width="23" height="34">
<path d="M147.333 14.6666H170V48H147.333V14.6666Z" fill="white"/>
</mask>
<g mask="url(#mask27_6_28)">
<mask id="mask28_6_28" style="mask-type:luminance" maskUnits="userSpaceOnUse" x="53" y="-25" width="182" height="212">
<path d="M53.5469 22.1406L166.151 -24.8073L234.656 139.479L122.052 186.432L53.5469 22.1406Z" fill="white"/>
</mask>
<g mask="url(#mask28_6_28)">
<mask id="mask29_6_28" style="mask-type:luminance" maskUnits="userSpaceOnUse" x="53" y="-25" width="182" height="212">
<path d="M53.5469 22.1406L166.151 -24.8073L234.656 139.479L122.052 186.432L53.5469 22.1406Z" fill="white"/>
</mask>
<g mask="url(#mask29_6_28)">
<path d="M169.542 15.9062C166.552 27.8229 157.531 38.9687 148.318 46.7552C156.609 37.4739 164.823 27.4687 169.542 15.9062Z" fill="#50644A"/>
</g>
</g>
</g>
<mask id="mask30_6_28" style="mask-type:luminance" maskUnits="userSpaceOnUse" x="119" y="113" width="31" height="19">
<path d="M119.333 113.333H150V132H119.333V113.333Z" fill="white"/>
</mask>
<g mask="url(#mask30_6_28)">
<mask id="mask31_6_28" style="mask-type:luminance" maskUnits="userSpaceOnUse" x="53" y="-25" width="182" height="212">
<path d="M53.5469 22.1406L166.151 -24.8073L234.656 139.479L122.052 186.432L53.5469 22.1406Z" fill="white"/>
</mask>
<g mask="url(#mask31_6_28)">
<mask id="mask32_6_28" style="mask-type:luminance" maskUnits="userSpaceOnUse" x="53" y="-25" width="182" height="212">
<path d="M53.5469 22.1406L166.151 -24.8073L234.656 139.479L122.052 186.432L53.5469 22.1406Z" fill="white"/>
</mask>
<g mask="url(#mask32_6_28)">
<path d="M119.5 114.234C128.24 121.474 139.302 127.271 149.693 131.557C138.333 128.562 127.542 122.839 119.5 114.234Z" fill="#50644A"/>
</g>
</g>
</g>
<mask id="mask33_6_28" style="mask-type:luminance" maskUnits="userSpaceOnUse" x="135" y="120" width="23" height="12">
<path d="M135.333 120H158V132H135.333V120Z" fill="white"/>
</mask>
<g mask="url(#mask33_6_28)">
<mask id="mask34_6_28" style="mask-type:luminance" maskUnits="userSpaceOnUse" x="53" y="-25" width="182" height="212">
<path d="M53.5469 22.1406L166.151 -24.8073L234.656 139.479L122.052 186.432L53.5469 22.1406Z" fill="white"/>
</mask>
<g mask="url(#mask34_6_28)">
<mask id="mask35_6_28" style="mask-type:luminance" maskUnits="userSpaceOnUse" x="53" y="-25" width="182" height="212">
<path d="M53.5469 22.1406L166.151 -24.8073L234.656 139.479L122.052 186.432L53.5469 22.1406Z" fill="white"/>
</mask>
<g mask="url(#mask35_6_28)">
<path d="M136.401 120.031C143.417 122.802 151.365 126.63 157.469 131.12C150.427 127.464 143.26 124.042 136.401 120.031Z" fill="#50644A"/>
</g>
</g>
</g>
<mask id="mask36_6_28" style="mask-type:luminance" maskUnits="userSpaceOnUse" x="119" y="108" width="43" height="26">
<path d="M119.333 108H162V133.333H119.333V108Z" fill="white"/>
</mask>
<g mask="url(#mask36_6_28)">
<mask id="mask37_6_28" style="mask-type:luminance" maskUnits="userSpaceOnUse" x="53" y="-25" width="182" height="212">
<path d="M53.5469 22.1406L166.151 -24.8073L234.656 139.479L122.052 186.432L53.5469 22.1406Z" fill="white"/>
</mask>
<g mask="url(#mask37_6_28)">
<mask id="mask38_6_28" style="mask-type:luminance" maskUnits="userSpaceOnUse" x="53" y="-25" width="182" height="212">
<path d="M53.5469 22.1406L166.151 -24.8073L234.656 139.479L122.052 186.432L53.5469 22.1406Z" fill="white"/>
</mask>
<g mask="url(#mask38_6_28)">
<path d="M120.521 108.297C135.88 113.214 150.495 121.786 161.771 133.115C149.167 123.172 134.797 114.849 120.521 108.297Z" fill="#50644A"/>
</g>
</g>
</g>
<mask id="mask39_6_28" style="mask-type:luminance" maskUnits="userSpaceOnUse" x="146" y="114" width="24" height="21">
<path d="M146 114.667H170V134.667H146V114.667Z" fill="white"/>
</mask>
<g mask="url(#mask39_6_28)">
<mask id="mask40_6_28" style="mask-type:luminance" maskUnits="userSpaceOnUse" x="53" y="-25" width="182" height="212">
<path d="M53.5469 22.1406L166.151 -24.8073L234.656 139.479L122.052 186.432L53.5469 22.1406Z" fill="white"/>
</mask>
<g mask="url(#mask40_6_28)">
<mask id="mask41_6_28" style="mask-type:luminance" maskUnits="userSpaceOnUse" x="53" y="-25" width="182" height="212">
<path d="M53.5469 22.1406L166.151 -24.8073L234.656 139.479L122.052 186.432L53.5469 22.1406Z" fill="white"/>
</mask>
<g mask="url(#mask41_6_28)">
<path d="M146.656 115.271C154.677 120.745 162.01 127.984 169 134.427C160.974 128.932 153.641 121.635 146.656 115.271Z" fill="#50644A"/>
</g>
</g>
</g>
<mask id="mask42_6_28" style="mask-type:luminance" maskUnits="userSpaceOnUse" x="198" y="121" width="3" height="2">
<path d="M198 121.333H200.667V122.667H198V121.333Z" fill="white"/>
</mask>
<g mask="url(#mask42_6_28)">
<mask id="mask43_6_28" style="mask-type:luminance" maskUnits="userSpaceOnUse" x="53" y="-25" width="182" height="212">
<path d="M53.5469 22.1406L166.151 -24.8073L234.656 139.479L122.052 186.432L53.5469 22.1406Z" fill="white"/>
</mask>
<g mask="url(#mask43_6_28)">
<mask id="mask44_6_28" style="mask-type:luminance" maskUnits="userSpaceOnUse" x="53" y="-25" width="182" height="212">
<path d="M53.5469 22.1406L166.151 -24.8073L234.656 139.479L122.052 186.432L53.5469 22.1406Z" fill="white"/>
</mask>
<g mask="url(#mask44_6_28)">
<path d="M198.391 121.661C198.422 121.63 198.443 121.599 198.469 121.568L199.281 122.307L199.557 122.578C198.964 122.63 198.333 122.37 198.391 121.661Z" fill="#A0B699"/>
</g>
</g>
</g>
<mask id="mask45_6_28" style="mask-type:luminance" maskUnits="userSpaceOnUse" x="186" y="64" width="94" height="108">
<path d="M186.792 64.2551H279.188V171.646H186.792V64.2551Z" fill="white"/>
</mask>
<g mask="url(#mask45_6_28)">
<path d="M275.391 111.969C272.172 97.5416 265.911 82.1145 254.068 72.5937C248.443 68.0781 242 65.1093 234.729 64.677C227.896 64.276 220.896 66.4426 215.167 70.1093C202.349 78.3176 194.635 92.7031 191.031 107.141C186.786 124.146 187.135 141.885 187.245 159.276C187.255 161.531 187.266 163.781 187.271 166.036C187.271 168.984 189.859 171.807 192.901 171.667C195.953 171.531 198.536 169.193 198.536 166.036C198.51 139.99 195.323 108.448 213.172 86.8437C218.24 80.7187 225.521 75.7447 233.469 75.9374C238.469 76.0572 243.276 78.2395 247.135 81.4166C250.995 84.5937 253.974 88.7239 256.427 93.0833C268.75 114.953 268.469 141.698 267.307 166.036C267.167 168.984 270 171.802 272.938 171.667C276.109 171.526 278.422 169.193 278.573 166.036C279.432 147.979 279.349 129.698 275.391 111.969Z" fill="#A0B699"/>
</g>
<mask id="mask46_6_28" style="mask-type:luminance" maskUnits="userSpaceOnUse" x="173" y="49" width="120" height="123">
<path d="M173.839 49.5781H292.141V171.646H173.839V49.5781Z" fill="white"/>
</mask>
<g mask="url(#mask46_6_28)">
<path d="M272.635 94.4739C272.646 94.5052 272.661 94.5312 272.672 94.5573C272.661 94.5312 272.646 94.5 272.635 94.4739ZM288.203 106.969C284.448 89.3958 275.641 72.0312 261.292 60.7812C254.151 55.1823 246.125 51.3802 237.073 50.2604C228.578 49.2083 219.964 51.3698 212.453 55.3073C196.396 63.7239 185.109 80.1354 179.625 97.0677C173.255 116.75 173.729 137.99 174.161 158.427C174.219 160.964 174.271 163.5 174.318 166.036C174.375 168.979 176.87 171.807 179.953 171.667C182.958 171.536 185.646 169.193 185.583 166.036C185.193 144.724 183.62 122.573 189.964 101.917C194.229 88.0208 202.432 74.9167 214.677 67.0729C219.484 63.9948 224.937 61.75 230.635 61.3281C240.229 60.6146 249.615 65.1667 256.766 71.6042C266.979 80.7969 273.333 93.6927 276.656 107.031C280.891 124.021 280.677 141.839 280.484 159.234C280.458 161.5 280.427 163.766 280.396 166.036C280.359 168.984 283.016 171.802 286.031 171.667C289.115 171.531 291.625 169.193 291.667 166.036C291.911 146.339 292.344 126.344 288.203 106.969Z" fill="#FACEBF"/>
</g>
<mask id="mask47_6_28" style="mask-type:luminance" maskUnits="userSpaceOnUse" x="214" y="94" width="38" height="78">
<path d="M214 94.0469H251.984V171.646H214V94.0469Z" fill="white"/>
</mask>
<g mask="url(#mask47_6_28)">
<path d="M245.24 104.271C243.453 100.219 240.729 96.3177 236.432 94.7239C230.875 92.6614 225.771 96.7396 222.896 101.125C220.172 105.276 218.583 110.521 217.386 115.307C216.094 120.49 215.474 125.823 215.026 131.13C214.047 142.734 214.162 154.401 214.167 166.036C214.167 168.984 216.755 171.807 219.797 171.667C222.849 171.531 225.432 169.193 225.432 166.036C225.427 146.969 222.828 122.687 233.359 105.734C242.813 123.411 240.912 146.656 240.578 166.036C240.526 168.984 243.208 171.802 246.214 171.667C249.307 171.531 251.792 169.193 251.844 166.036C252.026 155.437 252.13 144.823 251.375 134.245C250.651 124.052 249.391 113.698 245.24 104.271Z" fill="#D6856E"/>
</g>
<mask id="mask48_6_28" style="mask-type:luminance" maskUnits="userSpaceOnUse" x="158" y="36" width="150" height="136">
<path d="M158.729 36.1926H307.25V171.646H158.729V36.1926Z" fill="white"/>
</mask>
<g mask="url(#mask48_6_28)">
<path d="M301.641 98.9687C298.896 88.4114 294.594 78.1353 288.328 69.1718C282.292 60.5364 274.812 53.0364 265.99 47.2499C257.505 41.6874 247.922 38.1249 237.865 36.8749C227.74 35.6197 217.651 37.4739 208.339 41.5103C189.307 49.7551 175.573 67.4322 167.839 86.1978C158.641 108.5 158.818 133.448 159.12 157.161C159.156 160.12 159.198 163.078 159.229 166.036C159.255 168.979 161.797 171.807 164.859 171.667C167.891 171.531 170.526 169.193 170.495 166.036C170.26 142.167 168.922 117.609 176.75 94.6614C181.875 79.6353 191.016 65.6353 204.156 56.7239C209.578 53.0416 215.651 50.2603 222.062 48.8906C236.328 45.8541 251.625 50.1614 263.328 58.8697C275.031 67.5728 283.318 80.3437 288.26 94.0676C295.635 114.536 295.708 136.687 295.74 158.177C295.745 160.797 295.74 163.417 295.74 166.036C295.74 168.984 298.333 171.807 301.375 171.667C304.427 171.531 307.005 169.193 307.005 166.036C307.01 143.667 307.307 120.786 301.641 98.9687Z" fill="#D6856E"/>
</g>
<mask id="mask49_6_28" style="mask-type:luminance" maskUnits="userSpaceOnUse" x="144" y="22" width="178" height="150">
<path d="M144.911 22.8073H321.062V171.646H144.911V22.8073Z" fill="white"/>
</mask>
<g mask="url(#mask49_6_28)">
<path d="M313.578 85.2031C305.958 63.4531 291.198 43.6875 270.63 32.7031C248.521 20.8906 221.125 19.7812 198.666 31.3021C177.786 42.0104 163.318 61.9687 154.422 83.1875C149.651 94.5625 146.901 106.391 145.849 118.677C144.791 131.089 145.328 143.573 145.541 156.01C145.599 159.354 145.64 162.693 145.64 166.036C145.646 168.984 148.229 171.807 151.276 171.667C154.328 171.531 156.911 169.193 156.906 166.036C156.89 135.281 154.755 105.125 169.51 76.8437C180.979 54.8646 202.338 37.0521 227 34.5781C250.765 32.1927 274.651 44.5312 289.265 63.4166C309.984 90.1927 310.057 123.802 309.495 156.026C309.432 159.365 309.375 162.698 309.338 166.036C309.302 168.984 311.953 171.802 314.969 171.667C318.052 171.531 320.568 169.193 320.604 166.036C320.916 139.083 322.646 111.078 313.578 85.2031Z" fill="#A0B699"/>
</g>
<mask id="mask50_6_28" style="mask-type:luminance" maskUnits="userSpaceOnUse" x="200" y="78" width="66" height="94">
<path d="M200.177 78.6666H265.802V171.646H200.177V78.6666Z" fill="white"/>
</mask>
<g mask="url(#mask50_6_28)">
<path d="M250.474 88.026C247.099 83.8437 242.125 80.1614 236.755 79.1406C230.297 77.9114 224.458 80.0625 219.562 84.2968C214.724 88.4791 211.161 94.4114 208.531 100.182C205.74 106.307 203.682 112.713 202.495 119.344C199.745 134.698 200.682 150.516 200.687 166.036C200.693 168.984 203.281 171.807 206.323 171.667C209.375 171.531 211.958 169.193 211.953 166.036C211.948 151.724 210.901 137.281 213.198 123.078C214.318 116.115 216.26 109.177 219.63 102.948C222.307 98 226.583 90.125 233.078 90.1666C234.849 90.177 236.573 90.8229 238.073 91.7656C241.443 93.8854 243.693 97.3854 245.484 100.943C255.51 120.896 254.224 144.349 254.224 166.036C254.224 168.984 256.818 171.807 259.859 171.667C262.911 171.531 265.49 169.193 265.49 166.036C265.49 152.38 265.5 138.661 263.719 125.099C262.01 112.073 258.906 98.4739 250.474 88.026Z" fill="#FACEBF"/>
</g>
<mask id="mask51_6_28" style="mask-type:luminance" maskUnits="userSpaceOnUse" x="131" y="9" width="205" height="163">
<path d="M131.354 9.33331H335.333V171.646H131.354V9.33331Z" fill="white"/>
</mask>
<g mask="url(#mask51_6_28)">
<path d="M326.422 77.4636C316.833 54.4375 300.948 34.2448 279.109 21.7396C267.432 15.0573 254.677 10.8334 241.255 9.71877C228.135 8.63023 214.609 10.6146 202.26 15.1354C177.396 24.2448 156.901 43.3281 145.38 67.125C132.302 94.1511 131.339 125.182 131.552 154.661C131.583 158.453 131.63 162.245 131.688 166.036C131.729 168.979 134.245 171.807 137.318 171.667C140.333 171.536 142.995 169.193 142.953 166.036C142.396 127.464 141.604 86.2344 166.849 54.3542C182.776 34.25 207.51 20.724 233.156 20.6459C256.37 20.5781 279.01 31.4584 294.943 48.3386C307.339 61.4636 315.786 77.9844 320.302 95.3959C325.333 114.781 324.229 135.151 323.547 154.995C323.422 158.672 323.297 162.354 323.203 166.036C323.125 168.984 325.849 171.802 328.833 171.667C331.953 171.531 334.385 169.193 334.469 166.036C335.234 136.469 338.083 105.469 326.422 77.4636Z" fill="#FACEBF"/>
</g>
<mask id="mask52_6_28" style="mask-type:luminance" maskUnits="userSpaceOnUse" x="47" y="127" width="291" height="137">
<path d="M47.7188 127.135H338V263.703H47.7188V127.135Z" fill="white"/>
</mask>
<g mask="url(#mask52_6_28)">
<mask id="mask53_6_28" style="mask-type:luminance" maskUnits="userSpaceOnUse" x="47" y="127" width="292" height="137">
<path d="M192.927 127.135C112.729 127.135 47.7188 157.703 47.7188 195.417C47.7188 233.13 112.729 263.703 192.927 263.703C273.12 263.703 338.13 233.13 338.13 195.417C338.13 157.703 273.12 127.135 192.927 127.135Z" fill="white"/>
</mask>
<g mask="url(#mask53_6_28)">
<path d="M47.7188 127.135H337.927V263.703H47.7188V127.135Z" fill="#FFFBF8"/>
</g>
</g>
<path d="M141.208 221.061C142.5 221.66 143.146 222.655 143.146 224.04C143.146 224.249 143.115 224.452 143.062 224.644C143.021 224.842 142.948 225.04 142.854 225.249C137.589 238.165 131.104 248.124 123.396 255.124C115.698 262.124 106.089 265.624 94.5625 265.624C88.5052 265.624 83.1354 264.405 78.4583 261.978C73.7917 259.545 70.1354 256.124 67.5 251.707C64.875 247.28 63.5625 242.082 63.5625 236.124C63.5625 226.389 66.0938 218.165 71.1667 211.457C76.2344 204.749 82.7917 199.707 90.8333 196.332C88.9427 194.347 87.401 192.061 86.2083 189.478C85.026 186.894 84.4375 184.259 84.4375 181.561C84.4375 179.478 84.6302 177.644 85.0208 176.061C85.4219 174.467 85.6719 173.368 85.7708 172.769C81.2969 170.785 77.25 167.832 73.625 163.915C70 159.988 67.0885 155.738 64.8958 151.165C64.6979 150.571 64.6042 150.071 64.6042 149.665C64.6042 148.488 65.1979 147.597 66.3958 146.999C66.9896 146.79 67.4375 146.686 67.7292 146.686C69.0208 146.686 69.9635 147.285 70.5625 148.478C72.1562 151.66 73.75 154.301 75.3333 156.394C76.9271 158.478 78.7188 160.321 80.7083 161.915C82.6927 163.499 85.0729 165.181 87.8542 166.957C90.8385 160.499 95.3333 155.436 101.333 151.769C107.344 148.092 113.88 146.249 120.938 146.249C125.615 146.249 129.49 147.29 132.562 149.374C135.646 151.457 137.188 154.389 137.188 158.165C137.089 162.04 135.422 165.426 132.188 168.311C128.964 171.186 124.964 173.426 120.188 175.019C115.422 176.603 110.609 177.394 105.75 177.394C102.958 177.394 100.396 177.176 98.0625 176.728C95.7292 176.285 93.5677 175.764 91.5833 175.165C91.3854 175.957 91.2135 176.853 91.0625 177.853C90.9062 178.842 90.8333 180.03 90.8333 181.415C90.8333 183.707 91.4479 185.952 92.6875 188.144C93.9375 190.327 95.5052 192.259 97.3958 193.936C99.0885 193.436 101.344 192.967 104.167 192.519C107 192.077 109.062 191.853 110.354 191.853C112.646 191.853 114.734 192.431 116.625 193.582C118.51 194.722 119.458 196.332 119.458 198.415C119.458 200.905 118.635 202.79 117 204.082C115.359 205.374 113.25 206.019 110.667 206.019C106.094 206.019 101.276 204.327 96.2083 200.936C88.151 203.827 81.7344 208.478 76.9583 214.894C72.1927 221.301 69.8125 228.374 69.8125 236.124C69.8125 243.665 72.1927 249.431 76.9583 253.415C81.7344 257.384 87.6042 259.374 94.5625 259.374C104.698 259.374 113.094 256.222 119.75 249.915C126.401 243.597 132.167 234.577 137.042 222.853C137.333 222.061 137.901 221.493 138.75 221.144C139.594 220.801 140.417 220.769 141.208 221.061ZM93.6667 169.207C95.651 169.806 97.5885 170.249 99.4792 170.54C101.365 170.832 103.458 170.978 105.75 170.978C109.318 170.978 113.01 170.436 116.833 169.353C120.667 168.259 123.943 166.743 126.667 164.811C129.401 162.868 130.823 160.655 130.938 158.165C130.938 156.181 129.917 154.743 127.875 153.853C125.833 152.952 123.521 152.499 120.938 152.499C115.073 152.499 109.635 154.071 104.625 157.207C99.6094 160.332 95.9583 164.332 93.6667 169.207ZM105.292 198.707C107.484 199.597 109.672 199.946 111.854 199.749C112.948 199.556 113.396 199.306 113.188 198.999C113.188 198.405 112.344 198.103 110.667 198.103C110.26 198.103 109.609 198.16 108.708 198.269C107.818 198.368 106.677 198.514 105.292 198.707Z" fill="#D6856E"/>
<path d="M172.064 221.207C173.257 221.905 173.856 222.847 173.856 224.04C173.856 224.347 173.752 224.801 173.543 225.394C170.668 231.551 167.736 236.988 164.752 241.707C161.778 246.431 158.528 250.113 155.002 252.748C151.47 255.373 147.424 256.686 142.856 256.686C139.273 256.686 136.533 255.498 134.648 253.123C132.762 250.738 131.814 247.748 131.814 244.165C131.814 241.988 132.22 239.332 133.023 236.207C133.814 233.071 135.153 228.571 137.043 222.707C139.028 216.847 141.111 210.811 143.293 204.603C145.47 198.394 147.658 192.207 149.856 186.04L157.606 163.394C157.898 162.592 158.439 162.014 159.231 161.665C160.033 161.321 160.835 161.248 161.627 161.457C162.418 161.748 163.007 162.301 163.398 163.103C163.799 163.894 163.856 164.686 163.564 165.478L155.814 188.123C153.731 194.082 151.616 200.071 149.481 206.082C147.34 212.097 145.179 218.285 143.002 224.644C139.72 234.785 138.085 241.29 138.085 244.165C138.085 248.347 139.674 250.436 142.856 250.436C146.424 250.436 149.648 249.196 152.523 246.707C155.408 244.222 158.095 240.868 160.585 236.644C163.069 232.426 165.45 227.78 167.731 222.707C168.424 221.514 169.418 220.915 170.71 220.915C171.012 220.915 171.465 221.014 172.064 221.207Z" fill="#D6856E"/>
<path d="M231.827 225.249C228.546 232.79 225.098 238.327 221.473 241.853C217.848 245.384 213.796 247.144 209.327 247.144C205.046 247.144 201.27 245.806 197.994 243.124C195.213 246.806 192.035 249.988 188.452 252.665C184.869 255.347 181.291 256.686 177.723 256.686C172.848 256.686 169.463 255.249 167.577 252.374C165.702 249.488 164.765 245.905 164.765 241.624C164.765 235.874 165.478 230.493 166.91 225.478C168.353 220.452 170.067 215.926 172.056 211.894C174.041 207.868 175.832 204.514 177.431 201.832C183.681 191.405 190.681 186.186 198.431 186.186C203.4 186.285 207.129 187.853 209.619 190.894C212.103 193.926 213.348 197.676 213.348 202.144C213.348 205.217 212.848 208.79 211.848 212.874C210.858 216.946 209.494 221.139 207.744 225.457C206.004 229.78 203.999 233.874 201.723 237.749C203.4 239.847 205.937 240.894 209.327 240.894C212.504 240.894 215.437 239.431 218.119 236.499C220.796 233.571 223.431 229.019 226.015 222.853C226.515 221.561 227.457 220.915 228.848 220.915C229.931 220.915 230.817 221.368 231.515 222.269C232.223 223.16 232.327 224.155 231.827 225.249ZM197.244 220.915C198.338 220.915 199.187 221.321 199.785 222.124C200.379 222.915 200.525 223.853 200.223 224.936C200.025 225.535 199.9 226.134 199.848 226.728C199.806 227.327 199.733 227.874 199.64 228.374C201.916 223.707 203.723 218.993 205.056 214.228C206.4 209.452 207.077 205.368 207.077 201.978C207.077 198.811 206.254 196.436 204.619 194.853C202.978 193.259 200.869 192.457 198.285 192.457C195.504 192.457 192.796 193.624 190.16 195.957C187.535 198.29 185.124 201.347 182.931 205.124C181.64 207.207 180.077 210.113 178.244 213.832C176.41 217.556 174.77 221.78 173.327 226.499C171.879 231.222 171.16 236.165 171.16 241.332C171.16 244.014 171.65 246.202 172.64 247.894C173.64 249.592 175.332 250.436 177.723 250.436C180.499 250.436 183.353 249.144 186.285 246.561C189.213 243.978 191.921 240.946 194.41 237.457C193.619 235.472 193.244 233.092 193.285 230.311C193.338 227.519 193.619 225.186 194.119 223.311C194.41 221.717 195.452 220.915 197.244 220.915Z" fill="#D6856E"/>
<path d="M259.244 171.144L279.369 157.269C280.161 156.785 281 156.639 281.89 156.832C282.791 157.03 283.437 157.519 283.828 158.311C284.328 159.009 284.479 159.827 284.286 160.769C284.088 161.717 283.588 162.436 282.786 162.936L262.224 176.499C261.432 176.905 260.661 177.009 259.911 176.811C259.161 176.603 258.541 176.155 258.057 175.457C257.75 174.665 257.692 173.874 257.89 173.082C258.099 172.28 258.547 171.634 259.244 171.144ZM290.244 221.207C291.536 221.806 292.182 222.749 292.182 224.04C292.182 224.348 292.083 224.801 291.89 225.394L291.744 225.832C290.338 228.915 288.771 232.249 287.036 235.832C285.297 239.405 283.312 242.78 281.078 245.957C278.838 249.139 276.38 251.723 273.703 253.707C271.021 255.696 267.994 256.686 264.619 256.686C261.036 256.686 258.349 255.519 256.557 253.186C254.765 250.853 253.869 247.848 253.869 244.165C247.911 252.514 241.703 256.686 235.244 256.686C231.078 256.686 228 255.124 226.015 251.999C224.026 248.863 223.036 245.056 223.036 240.582C223.036 236.707 223.604 232.363 224.744 227.54C225.88 222.723 227.463 217.884 229.494 213.019C231.536 208.144 233.922 203.702 236.661 199.686C239.396 195.66 242.401 192.405 245.682 189.915C248.958 187.431 252.39 186.186 255.974 186.186C262.432 186.186 266.953 188.821 269.536 194.082C270.021 192.79 270.463 191.603 270.869 190.519C271.271 189.426 271.666 188.374 272.057 187.374C272.557 186.082 273.547 185.436 275.036 185.436C276.229 185.436 277.099 185.91 277.64 186.853C278.192 187.801 278.271 188.722 277.869 189.624L270.432 209.582C267.734 217.139 265.349 223.973 263.265 230.082C261.182 236.196 260.14 240.889 260.14 244.165C260.14 248.348 261.63 250.436 264.619 250.436C266.896 250.436 269.047 249.571 271.078 247.832C273.119 246.082 275.036 243.821 276.828 241.04C278.619 238.264 280.286 235.311 281.828 232.186C283.369 229.051 284.734 226.092 285.932 223.311L286.078 222.853C286.771 221.561 287.713 220.915 288.911 220.915C289.203 220.915 289.646 221.014 290.244 221.207ZM235.099 250.436C238.083 250.436 240.89 249.223 243.515 246.79C246.151 244.348 248.588 241.217 250.828 237.394C253.062 233.561 255.099 229.467 256.932 225.103C258.765 220.728 260.432 216.655 261.932 212.874L265.494 203.332C265.396 199.847 264.453 197.165 262.661 195.29C260.88 193.405 258.651 192.457 255.974 192.457C253.182 192.556 250.494 193.749 247.911 196.04C245.328 198.321 242.916 201.269 240.682 204.894C238.442 208.519 236.479 212.446 234.786 216.665C233.104 220.889 231.791 225.014 230.849 229.04C229.901 233.071 229.38 236.571 229.286 239.54C229.286 242.821 229.708 245.457 230.557 247.457C231.401 249.446 232.916 250.436 235.099 250.436Z" fill="#D6856E"/>
<path d="M2.39583 133.042C1.91667 132.307 1.51042 131.536 1.17708 130.729C0.84375 129.917 0.59375 129.083 0.421875 128.224C0.25 127.365 0.161458 126.495 0.15625 125.62C0.151041 124.74 0.229166 123.875 0.390625 123.01C0.552082 122.151 0.796874 121.312 1.11979 120.5C1.44271 119.682 1.83854 118.906 2.3125 118.172C2.78646 117.432 3.32292 116.745 3.92708 116.109C4.53125 115.474 5.1875 114.906 5.90625 114.396C14.724 109.073 23.9323 104.531 33.5312 100.771C43.125 97.0104 52.9635 94.0885 63.0573 92.0052C73.1458 89.9167 83.3438 88.6979 93.6406 88.3437C103.938 87.9896 114.193 88.5052 124.406 89.8958C125.26 90.0781 126.094 90.3437 126.901 90.6875C127.703 91.0312 128.474 91.4479 129.198 91.9375C129.922 92.4271 130.599 92.9792 131.219 93.5989C131.833 94.2187 132.391 94.8958 132.88 95.6198C133.37 96.3489 133.786 97.1146 134.13 97.9219C134.474 98.7239 134.734 99.5573 134.917 100.417C135.104 101.271 135.203 102.135 135.219 103.016C135.234 103.891 135.167 104.76 135.016 105.625L129.302 132.375C129.161 133.292 128.922 134.182 128.594 135.052C128.271 135.922 127.859 136.75 127.365 137.536C126.87 138.318 126.297 139.047 125.656 139.719C125.01 140.385 124.307 140.984 123.542 141.51C122.776 142.036 121.964 142.479 121.109 142.839C120.255 143.203 119.37 143.474 118.458 143.651C117.547 143.833 116.63 143.922 115.698 143.917C114.771 143.906 113.854 143.807 112.943 143.615C106.464 142.948 99.9688 142.776 93.4635 143.104C86.9583 143.432 80.5156 144.255 74.1354 145.578C67.7552 146.896 61.5104 148.693 55.4062 150.974C49.3021 153.25 43.4115 155.984 37.724 159.167C36.9688 159.703 36.1667 160.161 35.3177 160.536C34.4635 160.906 33.5885 161.193 32.6771 161.391C31.7708 161.583 30.8542 161.682 29.9219 161.693C28.9948 161.703 28.0729 161.615 27.1615 161.437C26.2552 161.255 25.3698 160.99 24.5104 160.63C23.6563 160.271 22.8438 159.828 22.0781 159.302C21.3125 158.776 20.6094 158.182 19.9635 157.51C19.3177 156.844 18.7448 156.12 18.25 155.333L2.39583 133.042Z" fill="#F8FDFF"/>
<path d="M27.4149 144.454C25.9826 145.303 24.5815 145.824 23.2065 146.016C21.8315 146.199 20.5242 146.079 19.2899 145.662C18.0503 145.235 16.8992 144.537 15.8315 143.579C14.7482 142.61 13.7847 141.407 12.9357 139.975C12.0763 138.516 11.4878 137.094 11.1649 135.704C10.8315 134.318 10.769 132.99 10.9774 131.725C11.1857 130.464 11.7222 129.277 12.5815 128.162C13.4305 127.053 14.5972 126.058 16.0815 125.183C16.8159 124.756 17.6545 124.402 18.6024 124.12C19.5451 123.844 20.4826 123.714 21.4149 123.725C22.342 123.725 23.2065 123.886 23.9982 124.204C24.7899 124.527 25.394 125.037 25.8107 125.745C26.0867 126.219 26.1753 126.678 26.0815 127.12C25.9982 127.553 25.7378 127.891 25.3107 128.141C25.019 128.308 24.7534 128.391 24.519 128.391C24.2795 128.381 24.0503 128.329 23.8315 128.245C23.6076 128.152 23.3836 128.032 23.1649 127.891C22.9409 127.74 22.6857 127.61 22.394 127.495C21.7795 127.261 21.0711 127.152 20.269 127.162C19.4617 127.162 18.592 127.433 17.6649 127.975C15.7378 129.1 14.6857 130.553 14.519 132.329C14.342 134.11 14.8628 136.047 16.0815 138.141C17.3159 140.24 18.769 141.631 20.4357 142.308C22.1128 142.975 23.8524 142.787 25.644 141.745C26.6128 141.178 27.3211 140.485 27.769 139.662C28.2117 138.844 28.4826 138.12 28.5815 137.495C28.6336 137.152 28.6492 136.844 28.6232 136.579C28.6076 136.318 28.6076 136.074 28.6232 135.85C28.6492 135.615 28.717 135.402 28.8315 135.204C28.9409 135.011 29.144 134.824 29.4357 134.641C29.8524 134.407 30.269 134.35 30.6857 134.475C31.1024 134.589 31.4357 134.85 31.6857 135.266C32.1128 136.016 32.2742 136.839 32.1649 137.725C32.0659 138.6 31.7795 139.469 31.3107 140.329C30.8524 141.193 30.2742 141.99 29.5815 142.725C28.8836 143.449 28.1649 144.027 27.4149 144.454Z" fill="#D6856E"/>
<path d="M39.257 136.415C39.4653 136.947 39.4549 137.41 39.2361 137.811C39.0278 138.202 38.6997 138.493 38.257 138.686C37.783 138.868 37.3195 138.894 36.8611 138.769C36.4132 138.644 36.0903 138.322 35.882 137.79L24.9445 111.124C24.7361 110.598 24.7518 110.134 24.9861 109.728C25.2101 109.327 25.559 109.035 26.0278 108.853C26.4757 108.66 26.9184 108.634 27.3611 108.769C27.7934 108.894 28.1111 109.223 28.3195 109.749L32.757 120.582C33.3715 117.79 35.0174 115.842 37.7153 114.728C39.632 113.952 41.3715 113.905 42.9445 114.582C44.5278 115.264 45.8403 116.868 46.882 119.394L51.757 131.29C51.9653 131.822 51.9549 132.285 51.7361 132.686C51.5278 133.092 51.1945 133.384 50.7361 133.561C50.2882 133.743 49.8403 133.78 49.382 133.665C48.9236 133.54 48.5903 133.217 48.382 132.686L43.507 120.832C42.908 119.363 42.1163 118.426 41.132 118.019C40.158 117.618 39.1007 117.655 37.9653 118.124C36.4236 118.749 35.4028 119.889 34.9028 121.54C34.4028 123.181 34.658 125.228 35.6736 127.686L39.257 136.415Z" fill="#D6856E"/>
<path d="M71.3869 126.372C71.4963 126.788 71.4338 127.163 71.1994 127.497C70.9599 127.819 70.6057 128.033 70.1369 128.142C69.3296 128.351 68.6786 128.241 68.1786 127.809C67.6786 127.382 67.2307 126.549 66.8453 125.309C66.2724 126.7 65.4546 127.83 64.3869 128.705C63.3296 129.58 62.189 130.174 60.9703 130.476C59.0119 130.976 57.3296 130.851 55.9286 130.101C54.538 129.34 53.5796 127.913 53.0536 125.83C52.4859 123.58 52.7932 121.679 53.9703 120.122C55.163 118.554 57.189 117.408 60.0536 116.684C60.689 116.517 61.3869 116.387 62.1369 116.288C62.8869 116.194 63.6682 116.116 64.4911 116.059L64.0119 114.142C63.6786 112.809 62.9963 111.934 61.9703 111.517C60.939 111.09 59.8453 111.028 58.6786 111.33C57.6213 111.596 56.8453 111.965 56.3453 112.434C55.8453 112.892 55.5224 113.434 55.3869 114.059C55.2724 114.658 55.064 115.09 54.7619 115.351C54.4546 115.601 54.064 115.783 53.5953 115.892C53.1213 116.017 52.689 115.986 52.2828 115.788C51.8817 115.596 51.6161 115.262 51.4911 114.788C51.3557 114.236 51.4234 113.637 51.6994 112.997C51.9807 112.346 52.4078 111.7 52.9911 111.059C53.5588 110.424 54.2671 109.846 55.1161 109.33C55.9755 108.819 56.913 108.429 57.9286 108.163C58.9807 107.903 60.0171 107.788 61.0328 107.83C62.0588 107.872 63.0015 108.09 63.8661 108.476C64.7255 108.851 65.4755 109.429 66.1161 110.205C66.7515 110.971 67.2255 111.955 67.5328 113.163L69.2619 119.934C69.5224 121.007 69.7671 121.887 69.9911 122.58C70.2099 123.278 70.413 123.861 70.5953 124.33C70.788 124.804 70.9494 125.194 71.0744 125.497C71.2099 125.804 71.314 126.096 71.3869 126.372ZM65.4911 120.017C65.4078 119.658 65.1994 119.45 64.8661 119.392C64.5432 119.325 64.1994 119.304 63.8244 119.33C63.4182 119.361 62.9703 119.413 62.4703 119.497C61.9703 119.569 61.4286 119.679 60.8453 119.83C59.0224 120.288 57.7828 120.944 57.1161 121.788C56.4494 122.637 56.2724 123.684 56.5953 124.934C56.8713 126.017 57.3557 126.741 58.0536 127.101C58.7463 127.45 59.6057 127.491 60.6369 127.226C61.439 127.033 62.1786 126.694 62.8453 126.205C63.5224 125.705 64.0953 125.132 64.5536 124.476C65.0119 123.825 65.3296 123.116 65.5119 122.351C65.7046 121.575 65.6994 120.799 65.4911 120.017ZM54.1161 106.58C54.0432 106.33 54.0848 105.882 54.2411 105.226C54.4078 104.575 54.6057 103.887 54.8453 103.163C55.1213 102.205 55.4494 101.319 55.8244 100.497C56.1994 99.6788 56.663 99.1997 57.2203 99.059C57.7463 98.9236 58.2515 98.9497 58.7411 99.1424C59.2411 99.3403 59.5432 99.658 59.6578 100.101C59.7671 100.575 59.6057 101.184 59.1786 101.934C58.7463 102.674 58.2671 103.444 57.7411 104.247C57.2411 104.971 56.7671 105.611 56.3244 106.163C55.8921 106.705 55.4963 107.028 55.1369 107.122C54.939 107.179 54.7307 107.158 54.5119 107.059C54.3036 106.965 54.1682 106.804 54.1161 106.58Z" fill="#D6856E"/>
<path d="M100.809 121.357C99.1265 123.998 96.8713 125.347 94.038 125.42C92.8557 125.446 91.7515 125.253 90.7255 124.836C89.6942 124.42 88.7984 123.789 88.038 122.941C87.288 122.081 86.6838 120.993 86.2255 119.67C85.7776 118.352 85.538 116.816 85.4963 115.066C85.439 113.024 85.6109 111.263 86.0172 109.774C86.4182 108.289 87.0015 107.055 87.7672 106.066C88.5432 105.081 89.4859 104.336 90.6005 103.836C91.7099 103.336 92.9234 103.066 94.2463 103.024C95.2724 102.998 96.2984 103.17 97.3297 103.545C98.3557 103.92 99.314 104.482 100.205 105.232L99.913 94.7114C99.8974 94.1437 100.069 93.7114 100.434 93.4197C100.809 93.128 101.236 92.977 101.725 92.9614C102.21 92.9509 102.632 93.0812 102.996 93.3572C103.356 93.6384 103.543 94.0603 103.559 94.628L104.163 116.961C104.189 118.06 104.236 118.972 104.309 119.691C104.377 120.414 104.455 121.024 104.538 121.524C104.621 122.024 104.684 122.441 104.725 122.774C104.778 123.107 104.814 123.42 104.83 123.711C104.84 124.128 104.705 124.477 104.413 124.753C104.121 125.019 103.731 125.159 103.246 125.17C102.413 125.201 101.814 124.894 101.455 124.253C101.106 123.618 100.892 122.649 100.809 121.357ZM100.33 110.17C100.298 109.227 99.9807 108.513 99.3713 108.024C98.6057 107.441 97.8505 106.998 97.1005 106.691C96.3505 106.373 95.5588 106.227 94.7255 106.253C92.9182 106.295 91.5172 107.06 90.5172 108.545C89.5172 110.019 89.0588 112.159 89.1422 114.961C89.2099 117.493 89.7515 119.336 90.7672 120.503C91.7932 121.659 93.0797 122.211 94.6213 122.17C95.4547 122.159 96.2307 121.951 96.9547 121.545C97.6734 121.128 98.2984 120.539 98.8297 119.774C99.3557 118.998 99.7567 118.034 100.038 116.878C100.314 115.711 100.434 114.368 100.392 112.836L100.33 110.17Z" fill="#D6856E"/>
<path d="M124.409 125.822C124.367 126.238 124.179 126.556 123.846 126.78C123.513 127.014 123.101 127.103 122.617 127.051C121.794 126.952 121.226 126.603 120.909 126.009C120.586 125.426 120.461 124.488 120.534 123.197C119.518 124.296 118.357 125.061 117.054 125.509C115.763 125.952 114.482 126.103 113.221 125.967C111.205 125.728 109.679 125.014 108.638 123.822C107.596 122.613 107.2 120.941 107.45 118.801C107.711 116.499 108.679 114.822 110.346 113.78C112.023 112.738 114.336 112.395 117.284 112.738C117.919 112.811 118.607 112.936 119.346 113.113C120.08 113.296 120.846 113.499 121.638 113.717L121.867 111.759C122.018 110.384 121.69 109.322 120.888 108.572C120.08 107.822 119.086 107.379 117.909 107.238C116.81 107.113 115.95 107.186 115.325 107.447C114.7 107.712 114.205 108.103 113.846 108.613C113.523 109.129 113.179 109.457 112.804 109.592C112.429 109.717 112.002 109.754 111.534 109.697C111.044 109.645 110.643 109.457 110.325 109.134C110.002 108.801 109.877 108.395 109.95 107.905C110.002 107.337 110.284 106.801 110.784 106.301C111.284 105.801 111.909 105.358 112.659 104.967C113.419 104.582 114.289 104.296 115.263 104.113C116.247 103.936 117.268 103.905 118.325 104.03C119.393 104.155 120.393 104.421 121.325 104.822C122.268 105.228 123.075 105.759 123.742 106.426C124.419 107.082 124.919 107.884 125.242 108.842C125.575 109.79 125.664 110.879 125.513 112.113L124.721 119.051C124.596 120.15 124.513 121.061 124.471 121.78C124.429 122.504 124.409 123.124 124.409 123.634C124.419 124.134 124.435 124.551 124.45 124.884C124.461 125.217 124.45 125.53 124.409 125.822ZM121.179 117.78C121.221 117.405 121.096 117.134 120.804 116.967C120.523 116.79 120.205 116.65 119.846 116.551C119.455 116.441 119.013 116.332 118.513 116.217C118.023 116.108 117.492 116.02 116.909 115.947C115.034 115.728 113.627 115.9 112.7 116.467C111.784 117.025 111.247 117.941 111.096 119.217C110.971 120.332 111.164 121.176 111.679 121.759C112.205 122.342 112.997 122.697 114.054 122.822C114.888 122.905 115.7 122.842 116.492 122.634C117.294 122.415 118.034 122.082 118.7 121.634C119.367 121.176 119.919 120.624 120.367 119.967C120.81 119.301 121.08 118.572 121.179 117.78Z" fill="#D6856E"/>
</svg>
